<svg width="23" height="22" viewBox="0 0 23 22" fill="none" xmlns="http://www.w3.org/2000/svg">
<path d="M11.4849 18.3812C11.4849 18.3812 3.12 13.6968 3.12 8.00869C3.12 7.00313 3.46839 6.02864 4.1059 5.251C4.74341 4.47336 5.63066 3.94062 6.61669 3.74341C7.60272 3.54621 8.62661 3.69672 9.51418 4.16934C10.4017 4.64197 11.0981 5.4075 11.4849 6.33571V6.33571C11.8716 5.4075 12.568 4.64197 13.4556 4.16934C14.3432 3.69672 15.3671 3.54621 16.3531 3.74341C17.3391 3.94062 18.2264 4.47336 18.8639 5.251C19.5014 6.02864 19.8498 7.00313 19.8498 8.00869C19.8498 13.6968 11.4849 18.3812 11.4849 18.3812Z" stroke="#4A60A1" stroke-width="1.38209" stroke-linecap="round" stroke-linejoin="round"/>
</svg>
