<svg width="27" height="27" viewBox="0 0 27 27" fill="none" xmlns="http://www.w3.org/2000/svg">
<path d="M2.3031 12.9546H24.788" stroke="#6D737A" stroke-width="1.60606" stroke-linecap="round" stroke-linejoin="round"/>
<path d="M23.1819 19.3789V21.788C23.1819 22.001 23.0973 22.2052 22.9467 22.3558C22.7961 22.5064 22.5918 22.591 22.3789 22.591H19.9698C19.7568 22.591 19.5525 22.5064 19.4019 22.3558C19.2514 22.2052 19.1667 22.001 19.1667 21.788V19.3789" stroke="#6D737A" stroke-width="1.60606" stroke-linecap="round" stroke-linejoin="round"/>
<path d="M7.92433 19.3789V21.788C7.92433 22.001 7.83973 22.2052 7.68913 22.3558C7.53853 22.5064 7.33428 22.591 7.1213 22.591H4.71221C4.49923 22.591 4.29498 22.5064 4.14438 22.3558C3.99378 22.2052 3.90918 22.001 3.90918 21.788V19.3789" stroke="#6D737A" stroke-width="1.60606" stroke-linecap="round" stroke-linejoin="round"/>
<path d="M7.12122 16.1667H8.72728" stroke="#6D737A" stroke-width="1.60606" stroke-linecap="round" stroke-linejoin="round"/>
<path d="M18.3636 16.1667H19.9697" stroke="#6D737A" stroke-width="1.60606" stroke-linecap="round" stroke-linejoin="round"/>
<path d="M23.1819 12.9546L20.1806 6.20911C20.1183 6.06641 20.0159 5.94489 19.8858 5.85934C19.7557 5.7738 19.6035 5.72792 19.4478 5.72729H7.64327C7.48757 5.72792 7.33541 5.7738 7.20531 5.85934C7.07521 5.94489 6.97279 6.06641 6.91051 6.20911L3.90918 12.9546V19.3788H23.1819V12.9546Z" stroke="#6D737A" stroke-width="1.60606" stroke-linecap="round" stroke-linejoin="round"/>
</svg>
