<svg width="27" height="27" viewBox="0 0 27 27" fill="none" xmlns="http://www.w3.org/2000/svg">
<path d="M7.74255 20.1819V22.591" stroke="#6D737A" stroke-width="1.60606" stroke-linecap="round" stroke-linejoin="round"/>
<path d="M18.985 20.1819V22.591" stroke="#6D737A" stroke-width="1.60606" stroke-linecap="round" stroke-linejoin="round"/>
<path d="M6.13647 11.3486V6.12891C6.13647 5.59647 6.34799 5.08584 6.72448 4.70934C7.10097 4.33285 7.61161 4.12134 8.14405 4.12134C8.67649 4.12134 9.18713 4.33285 9.56362 4.70934C9.94011 5.08584 10.1516 5.59647 10.1516 6.12891" stroke="#6D737A" stroke-width="1.60606" stroke-linecap="round" stroke-linejoin="round"/>
<path d="M20.591 10.5457H14.1667V15.3638H20.591V10.5457Z" stroke="#6D737A" stroke-width="1.60606" stroke-linecap="round" stroke-linejoin="round"/>
<path d="M20.591 11.3486H23.8032C24.0161 11.3486 24.2204 11.4332 24.371 11.5838C24.5216 11.7344 24.6062 11.9387 24.6062 12.1517V15.3638C24.6062 16.6416 24.0986 17.8672 23.195 18.7708C22.2914 19.6743 21.0659 20.182 19.788 20.182H6.93952C5.66166 20.182 4.43614 19.6743 3.53255 18.7708C2.62897 17.8672 2.12134 16.6416 2.12134 15.3638V12.1517C2.12134 11.9387 2.20594 11.7344 2.35654 11.5838C2.50714 11.4332 2.71139 11.3486 2.92437 11.3486H14.1668" stroke="#6D737A" stroke-width="1.60606" stroke-linecap="round" stroke-linejoin="round"/>
</svg>
