<svg width="23" height="22" viewBox="0 0 23 22" fill="none" xmlns="http://www.w3.org/2000/svg">
<path d="M6.30323 13.6968C7.78157 13.6968 8.98 12.4984 8.98 11.02C8.98 9.54169 7.78157 8.34326 6.30323 8.34326C4.82489 8.34326 3.62646 9.54169 3.62646 11.02C3.62646 12.4984 4.82489 13.6968 6.30323 13.6968Z" stroke="#4A60A1" stroke-width="1.38209" stroke-linecap="round" stroke-linejoin="round"/>
<path d="M15.6719 19.7195C17.1502 19.7195 18.3487 18.5211 18.3487 17.0427C18.3487 15.5644 17.1502 14.366 15.6719 14.366C14.1935 14.366 12.9951 15.5644 12.9951 17.0427C12.9951 18.5211 14.1935 19.7195 15.6719 19.7195Z" stroke="#4A60A1" stroke-width="1.38209" stroke-linecap="round" stroke-linejoin="round"/>
<path d="M15.6719 7.67409C17.1502 7.67409 18.3487 6.47566 18.3487 4.99732C18.3487 3.51899 17.1502 2.32056 15.6719 2.32056C14.1935 2.32056 12.9951 3.51899 12.9951 4.99732C12.9951 6.47566 14.1935 7.67409 15.6719 7.67409Z" stroke="#4A60A1" stroke-width="1.38209" stroke-linecap="round" stroke-linejoin="round"/>
<path d="M13.4218 6.44434L8.55347 9.57281" stroke="#4A60A1" stroke-width="1.38209" stroke-linecap="round" stroke-linejoin="round"/>
<path d="M8.55347 12.4673L13.4218 15.5958" stroke="#4A60A1" stroke-width="1.38209" stroke-linecap="round" stroke-linejoin="round"/>
</svg>
